/vscmnt/brussel_pixiu_data/_data_brussel/112/vsc11236/PredSimResults/SUBJ10opt3D/expIG/worker_09.mot
version=1
nRows=7
nColumns=50
inDegrees=yes
endheader
                time	         pelvis_tilt	         pelvis_list	     pelvis_rotation	           pelvis_tx	           pelvis_ty	           pelvis_tz	       hip_flexion_r	     hip_adduction_r	      hip_rotation_r	        knee_angle_r	       ankle_angle_r	         mtp_angle_r	       hip_flexion_l	     hip_adduction_l	      hip_rotation_l	        knee_angle_l	       ankle_angle_l	         mtp_angle_l	    lumbar_extension	      lumbar_bending	     lumbar_rotation	 ercspn_r/activation	 intobl_r/activation	 extobl_r/activation	    abd_r/activation	    add_r/activation	hamstrings_r/activation	bifemsh_r/activation	glut_max_r/activation	iliopsoas_r/activation	rect_fem_r/activation	  vasti_r/activation	gastroc_r/activation	 soleus_r/activation	tib_ant_r/activation	 ercspn_l/activation	 intobl_l/activation	 extobl_l/activation	    abd_l/activation	    add_l/activation	hamstrings_l/activation	bifemsh_l/activation	glut_max_l/activation	iliopsoas_l/activation	rect_fem_l/activation	  vasti_l/activation	gastroc_l/activation	 soleus_l/activation	tib_ant_l/activation	
          1.02784131	         -5.27474082	         -1.39759712	          8.10120317	          1.43897783	          0.81529904	         -0.01127722	         33.15382147	         -1.41081372	         -6.71149305	         -8.28798781	          3.96498121	          0.28440830	        -17.57431798	         -1.43984946	          1.01179935	         -6.80824532	          5.13491120	         31.28207960	         -7.21439938	          0.62879462	         -7.24930909	          0.11219443	          0.14702846	          0.00999999	          0.00999999	          0.20002231	          0.13878499	          0.27170154	          0.06879251	          0.09149331	          0.00999999	          0.00999999	          0.02073469	          0.01371958	          0.34108838	          0.12421428	          0.00999999	          0.00999999	          0.04040821	          0.02491010	          0.02728450	          0.22689396	          0.01371958	          0.39001879	          0.00999999	          0.00999999	          0.28693778	          0.24182462	          0.02204718	
          1.03811972	         -5.28508778	         -1.40491039	          8.19426477	          1.45580554	          0.81397687	         -0.01126970	         32.93910326	         -1.27011794	         -6.28233603	         -9.94332635	          3.53041154	          0.26812984	        -17.48025694	         -1.58369134	          0.71362971	         -8.96689429	          4.17930072	         32.90451456	         -7.01757478	          1.07781437	         -7.48576218	          0.09578568	          0.12552514	          0.00999999	          0.03533730	          0.17076849	          0.11935238	          0.23196443	          0.12760404	          0.07811216	          0.00999999	          0.00999999	          0.01770219	          0.01171306	          0.44895520	          0.14559182	          0.00999999	          0.00999999	          0.03449839	          0.04521357	          0.02329408	          0.19371009	          0.01171306	          0.33297746	          0.00999999	          0.00999999	          0.24497234	          0.22446961	          0.01882272	
          1.04839814	         -5.28680499	         -1.41045971	          8.23922910	          1.47272877	          0.81293702	         -0.01113439	         32.61724194	         -1.12308604	         -5.92665595	        -11.38818521	          2.93519731	          0.25519404	        -17.17907498	         -1.72819388	          0.37482560	        -11.49535824	          3.12331838	         34.27151149	         -6.82311438	          1.51725192	         -7.68720406	          0.11935132	          0.10716674	          0.00999999	          0.09787941	          0.19151344	          0.10189677	          0.19803899	          0.15419684	          0.06668804	          0.00999999	          0.00999999	          0.01511319	          0.00999999	          0.52045334	          0.16981683	          0.00999999	          0.00999999	          0.02945291	          0.03860096	          0.01988727	          0.16537945	          0.00999999	          0.28427858	          0.00999999	          0.00999999	          0.20914445	          0.20204328	          0.01606984	
          1.05867655	         -5.27959471	         -1.40844141	          8.23942365	          1.48955767	          0.81231034	         -0.01088228	         32.30610668	         -0.97251592	         -5.65147957	        -12.85957809	          2.39134925	          0.23536768	        -16.61354746	         -1.87038691	         -0.00296755	        -14.46008103	          1.97378702	         35.21263176	         -6.65081194	          1.94184874	         -7.85148933	          0.12717957	          0.09149330	          0.00999999	          0.13842304	          0.24837070	          0.08699408	          0.16907524	          0.17408715	          0.05693473	          0.00999999	          0.00999999	          0.01290285	          0.00999999	          0.54608724	          0.20987874	          0.00999999	          0.00999999	          0.02514534	          0.04252274	          0.02551899	          0.14119225	          0.00999999	          0.24270205	          0.00999999	          0.00999999	          0.17855649	          0.17249389	          0.01371958	
          1.06895496	         -5.26347488	         -1.40112374	          8.19845896	          1.50618798	          0.81219012	         -0.01052880	         32.05611560	         -0.82290272	         -5.44694833	        -14.46793559	          2.07360328	          0.21540014	        -15.74582328	         -2.01717150	         -0.42695246	        -17.90301413	          0.74564994	         35.52087112	         -6.50591344	          2.35284047	         -7.97870312	          0.13223837	          0.07811215	          0.00999999	          0.16872608	          0.29195296	          0.07427096	          0.14434752	          0.18311370	          0.04860787	          0.00999999	          0.04876025	          0.01101577	          0.00999999	          0.55035450	          0.23915171	          0.00999999	          0.00999999	          0.02146776	          0.11746160	          0.02196155	          0.12054249	          0.00999999	          0.20720620	          0.00999999	          0.00999999	          0.15244211	          0.14726618	          0.01171306	
          1.07923338	         -5.24092427	         -1.38262170	          8.11483203	          1.52256037	          0.81267584	         -0.01010355	         31.79955746	         -0.67828194	         -5.30700119	        -16.08215833	          2.01348424	          0.19484448	        -14.55067831	         -2.16569937	         -0.90838501	        -21.80942328	         -0.69623884	         35.17545548	         -6.38856069	          2.74401230	         -8.06587848	          0.12770548	          0.06668803	          0.00999999	          0.18264341	          0.31486568	          0.06754061	          0.12323629	          0.17511632	          0.04149883	          0.00999999	          0.08849950	          0.00999999	          0.00999999	          0.53283233	          0.24819271	          0.00999999	          0.00999999	          0.01832804	          0.19503127	          0.02366957	          0.10291281	          0.00999999	          0.17690172	          0.00999999	          0.00999999	          0.13014703	          0.12572809	          0.00999999	
          1.08951179	         -5.21498979	         -1.34960800	          7.98843432	          1.53863781	          0.81379499	         -0.00963446	         31.45326377	         -0.53297213	         -5.19800658	        -17.54955208	          2.23511096	          0.18048503	        -13.02935472	         -2.32075322	         -1.44769690	        -26.10089074	         -2.49539823	         34.17658966	         -6.29845144	          3.11284053	         -8.11166473	          0.11142716	          0.05693472	          0.00999999	          0.18835073	          0.32263941	          0.06696842	          0.10521264	          0.15462460	          0.03542951	          0.00999999	          0.11775448	          0.00999999	          0.00999999	          0.48103543	          0.24852012	          0.00999999	          0.00999999	          0.01564752	          0.25150600	          0.02201417	          0.08786153	          0.00999999	          0.15102935	          0.00999999	          0.00999999	          0.11111266	          0.10734001	          0.00999999	
